<svg width="227" height="38" viewBox="0 0 227 38" fill="none" xmlns="http://www.w3.org/2000/svg">
<path d="M0.492188 1.01367H6.44922L16.1172 23.2305V32.2637H14.5547L6.44922 12.2441V37H0.492188V1.01367ZM27.7871 1.01367H33.7441V37H27.7871V12.2441L19.7305 32.2637H18.1191V23.3281L27.7871 1.01367ZM72.2207 37H66.166L56.8398 10.0469L47.416 37H41.3125L53.9102 1.0625H59.7207L72.2207 37ZM60.0625 25.5742L61.4785 29.5293H52.1523L53.5195 25.5742H60.0625ZM79.7891 1.01367H85.7461L95.4141 23.2305V32.2637H93.8516L85.7461 12.2441V37H79.7891V1.01367ZM107.084 1.01367H113.041V37H107.084V12.2441L99.0273 32.2637H97.416V23.3281L107.084 1.01367ZM197.221 1.01367H203.08V37H197.221V1.01367ZM208.061 1.01367C211.088 1.01367 213.741 1.50195 216.02 2.47852C218.331 3.42253 220.235 4.69206 221.732 6.28711C223.262 7.88216 224.402 9.70508 225.15 11.7559C225.899 13.7741 226.273 15.8574 226.273 18.0059C226.273 20.9681 225.948 23.5072 225.297 25.623C224.678 27.7064 223.881 29.4642 222.904 30.8965C221.928 32.2962 220.821 33.403 219.584 34.2168C218.38 35.0306 217.208 35.6491 216.068 36.0723C214.929 36.4629 213.887 36.7233 212.943 36.8535C211.999 36.9512 211.299 37 210.844 37H205.082V32.7031H208.891C212.862 32.7031 215.727 31.4336 217.484 28.8945C219.242 26.3555 220.121 22.6771 220.121 17.8594C220.121 16.362 219.942 14.8809 219.584 13.416C219.226 11.9512 218.526 10.6328 217.484 9.46094C216.475 8.25651 215.092 7.29622 213.334 6.58008C211.576 5.83138 209.298 5.45703 206.498 5.45703H205.082V1.01367H208.061Z" fill="white"/>
<path d="M121.293 18.8359C121.293 15.9388 121.635 13.3835 122.318 11.1699C123.035 8.92383 124.011 7.03581 125.248 5.50586C126.518 3.94336 127.999 2.75521 129.691 1.94141C131.417 1.09505 133.288 0.606771 135.307 0.476562V5.35938C134.2 5.48958 133.158 5.83138 132.182 6.38477C131.205 6.93815 130.359 7.75195 129.643 8.82617C128.926 9.90039 128.357 11.2676 127.934 12.9277C127.51 14.5879 127.283 16.5573 127.25 18.8359C127.283 21.1471 127.51 23.1328 127.934 24.793C128.357 26.4206 128.926 27.7878 129.643 28.8945C130.391 30.0013 131.254 30.8477 132.23 31.4336C133.207 31.987 134.232 32.3125 135.307 32.4102V37.2441C133.321 37.1139 131.465 36.6419 129.74 35.8281C128.015 34.9818 126.518 33.7936 125.248 32.2637C124.011 30.7012 123.035 28.7969 122.318 26.5508C121.635 24.3047 121.293 21.7331 121.293 18.8359ZM137.26 0.476562C139.245 0.574219 141.085 1.04622 142.777 1.89258C144.503 2.73893 145.984 3.94336 147.221 5.50586C148.49 7.03581 149.483 8.92383 150.199 11.1699C150.915 13.3835 151.273 15.9388 151.273 18.8359C151.273 21.7331 150.915 24.3047 150.199 26.5508C149.483 28.7969 148.49 30.7012 147.221 32.2637C145.984 33.7936 144.519 34.9818 142.826 35.8281C141.133 36.6419 139.278 37.1139 137.26 37.2441V32.4102C138.367 32.2799 139.408 31.9382 140.385 31.3848C141.361 30.7988 142.208 29.9688 142.924 28.8945C143.64 27.7878 144.21 26.4206 144.633 24.793C145.056 23.1328 145.284 21.1471 145.316 18.8359C145.284 16.5247 145.056 14.5553 144.633 12.9277C144.21 11.2676 143.624 9.90039 142.875 8.82617C142.159 7.7194 141.312 6.88932 140.336 6.33594C139.359 5.75 138.334 5.4082 137.26 5.31055V0.476562Z" fill="url(#paint0_linear_1_2)"/>
<path d="M158.793 18.8359C158.793 15.9388 159.135 13.3835 159.818 11.1699C160.535 8.92383 161.511 7.03581 162.748 5.50586C164.018 3.94336 165.499 2.75521 167.191 1.94141C168.917 1.09505 170.788 0.606771 172.807 0.476562V5.35938C171.7 5.48958 170.658 5.83138 169.682 6.38477C168.705 6.93815 167.859 7.75195 167.143 8.82617C166.426 9.90039 165.857 11.2676 165.434 12.9277C165.01 14.5879 164.783 16.5573 164.75 18.8359C164.783 21.1471 165.01 23.1328 165.434 24.793C165.857 26.4206 166.426 27.7878 167.143 28.8945C167.891 30.0013 168.754 30.8477 169.73 31.4336C170.707 31.987 171.732 32.3125 172.807 32.4102V37.2441C170.821 37.1139 168.965 36.6419 167.24 35.8281C165.515 34.9818 164.018 33.7936 162.748 32.2637C161.511 30.7012 160.535 28.7969 159.818 26.5508C159.135 24.3047 158.793 21.7331 158.793 18.8359ZM174.76 0.476562C176.745 0.574219 178.585 1.04622 180.277 1.89258C182.003 2.73893 183.484 3.94336 184.721 5.50586C185.99 7.03581 186.983 8.92383 187.699 11.1699C188.415 13.3835 188.773 15.9388 188.773 18.8359C188.773 21.7331 188.415 24.3047 187.699 26.5508C186.983 28.7969 185.99 30.7012 184.721 32.2637C183.484 33.7936 182.019 34.9818 180.326 35.8281C178.633 36.6419 176.778 37.1139 174.76 37.2441V32.4102C175.867 32.2799 176.908 31.9382 177.885 31.3848C178.861 30.7988 179.708 29.9688 180.424 28.8945C181.14 27.7878 181.71 26.4206 182.133 24.793C182.556 23.1328 182.784 21.1471 182.816 18.8359C182.784 16.5247 182.556 14.5553 182.133 12.9277C181.71 11.2676 181.124 9.90039 180.375 8.82617C179.659 7.7194 178.812 6.88932 177.836 6.33594C176.859 5.75 175.834 5.4082 174.76 5.31055V0.476562Z" fill="url(#paint1_linear_1_2)"/>
<defs>
<linearGradient id="paint0_linear_1_2" x1="113.5" y1="-15" x2="113.5" y2="49" gradientUnits="userSpaceOnUse">
<stop offset="0.338542" stop-color="#EFE71C"/>
<stop offset="1" stop-color="#47EB1E"/>
</linearGradient>
<linearGradient id="paint1_linear_1_2" x1="113.5" y1="-15" x2="113.5" y2="49" gradientUnits="userSpaceOnUse">
<stop offset="0.34375" stop-color="#2CD6FB" stop-opacity="0.99"/>
<stop offset="1" stop-color="#DF1DB4"/>
</linearGradient>
</defs>
</svg>
