<svg width="31" height="38" viewBox="0 0 31 38" fill="none" xmlns="http://www.w3.org/2000/svg">
<path d="M0.759766 18.8359C0.759766 15.9388 1.10156 13.3835 1.78516 11.1699C2.5013 8.92383 3.47786 7.03581 4.71484 5.50586C5.98438 3.94336 7.46549 2.75521 9.1582 1.94141C10.8835 1.09505 12.7552 0.606771 14.7734 0.476562V5.35938C13.6667 5.48958 12.625 5.83138 11.6484 6.38477C10.6719 6.93815 9.82552 7.75195 9.10938 8.82617C8.39323 9.90039 7.82357 11.2676 7.40039 12.9277C6.97721 14.5879 6.74935 16.5573 6.7168 18.8359C6.74935 21.1471 6.97721 23.1328 7.40039 24.793C7.82357 26.4206 8.39323 27.7878 9.10938 28.8945C9.85807 30.0013 10.7207 30.8477 11.6973 31.4336C12.6738 31.987 13.6992 32.3125 14.7734 32.4102V37.2441C12.7878 37.1139 10.9323 36.6419 9.20703 35.8281C7.48177 34.9818 5.98438 33.7936 4.71484 32.2637C3.47786 30.7012 2.5013 28.7969 1.78516 26.5508C1.10156 24.3047 0.759766 21.7331 0.759766 18.8359ZM16.7266 0.476562C18.7122 0.574219 20.5514 1.04622 22.2441 1.89258C23.9694 2.73893 25.4505 3.94336 26.6875 5.50586C27.957 7.03581 28.9499 8.92383 29.666 11.1699C30.3822 13.3835 30.7402 15.9388 30.7402 18.8359C30.7402 21.7331 30.3822 24.3047 29.666 26.5508C28.9499 28.7969 27.957 30.7012 26.6875 32.2637C25.4505 33.7936 23.9857 34.9818 22.293 35.8281C20.6003 36.6419 18.7448 37.1139 16.7266 37.2441V32.4102C17.8333 32.2799 18.875 31.9382 19.8516 31.3848C20.8281 30.7988 21.6745 29.9688 22.3906 28.8945C23.1068 27.7878 23.6764 26.4206 24.0996 24.793C24.5228 23.1328 24.7507 21.1471 24.7832 18.8359C24.7507 16.5247 24.5228 14.5553 24.0996 12.9277C23.6764 11.2676 23.0905 9.90039 22.3418 8.82617C21.6257 7.7194 20.7793 6.88932 19.8027 6.33594C18.8262 5.75 17.8008 5.4082 16.7266 5.31055V0.476562Z" fill="url(#paint0_linear_8_2)"/>
<defs>
<linearGradient id="paint0_linear_8_2" x1="20" y1="-15" x2="20" y2="40" gradientUnits="userSpaceOnUse">
<stop offset="0.34375" stop-color="#2CD6FB" stop-opacity="0.99"/>
<stop offset="1" stop-color="#DF1DB4"/>
</linearGradient>
</defs>
</svg>
