<svg width="72" height="13" viewBox="0 0 72 13" fill="none" xmlns="http://www.w3.org/2000/svg">
<path d="M0.625 12.0781C0.40625 12.0052 0.328125 11.8281 0.390625 11.5469L0.59375 10.6562C0.65625 10.3802 0.820312 10.2812 1.08594 10.3594C1.23177 10.401 1.38281 10.4219 1.53906 10.4219C2.33594 10.4219 2.88542 9.85417 3.1875 8.71875C3.48958 7.57812 3.64062 5.83333 3.64062 3.48438V1.38281C3.64062 0.992188 3.82292 0.796875 4.1875 0.796875H9.96875C10.3333 0.796875 10.5156 0.992188 10.5156 1.38281V11.4141C10.5156 11.8047 10.3333 12 9.96875 12H8.78125C8.41667 12 8.23438 11.8047 8.23438 11.4141V2.73438H5.59375V3.92188C5.59375 7.02083 5.28906 9.1875 4.67969 10.4219C4.07031 11.651 3.08333 12.2656 1.71875 12.2656C1.375 12.2656 1.01042 12.2031 0.625 12.0781ZM13.4688 12C13.1042 12 12.9219 11.8047 12.9219 11.4141V1.38281C12.9219 0.992188 13.1042 0.796875 13.4688 0.796875H14.6562C15.0208 0.796875 15.2031 0.992188 15.2031 1.38281V5.20312H16.7344C16.776 4.10938 17.237 3.05729 18.1172 2.04688C18.9974 1.03646 20.2969 0.53125 22.0156 0.53125C23.7344 0.53125 25.0573 1.0599 25.9844 2.11719C26.9115 3.17448 27.375 4.60156 27.375 6.39844C27.375 8.19531 26.9115 9.6224 25.9844 10.6797C25.0573 11.737 23.7344 12.2656 22.0156 12.2656C20.2969 12.2656 18.9948 11.7604 18.1094 10.75C17.2292 9.73438 16.7552 8.53125 16.6875 7.14062H15.2031V11.4141C15.2031 11.8047 15.0208 12 14.6562 12H13.4688ZM19.0938 6.39844C19.0938 7.70052 19.3255 8.69792 19.7891 9.39062C20.2578 10.0781 21 10.4219 22.0156 10.4219C23.0312 10.4219 23.7708 10.0781 24.2344 9.39062C24.7031 8.69792 24.9375 7.70052 24.9375 6.39844C24.9375 5.09635 24.7031 4.10156 24.2344 3.41406C23.7708 2.72135 23.0312 2.375 22.0156 2.375C21 2.375 20.2578 2.72135 19.7891 3.41406C19.3255 4.10156 19.0938 5.09635 19.0938 6.39844ZM29.8438 12C29.4792 12 29.2969 11.8047 29.2969 11.4141V1.38281C29.2969 0.992188 29.4792 0.796875 29.8438 0.796875H36.4766C36.8672 0.796875 37.0625 0.966146 37.0625 1.30469V2.22656C37.0625 2.5651 36.8672 2.73438 36.4766 2.73438H31.5781V5.15625H32.8672C34.7943 5.15625 36.1328 5.46615 36.8828 6.08594C37.6328 6.70573 38.0078 7.53646 38.0078 8.57812C38.0078 9.61979 37.6328 10.4505 36.8828 11.0703C36.1328 11.6901 34.7943 12 32.8672 12H29.8438ZM31.5781 10.0938H32.6406C33.7344 10.0938 34.4948 9.9974 34.9219 9.80469C35.3542 9.61198 35.5703 9.20312 35.5703 8.57812C35.5703 7.95312 35.3542 7.54427 34.9219 7.35156C34.4948 7.15885 33.7344 7.0625 32.6406 7.0625H31.5781V10.0938ZM39.4219 6.39844C39.4219 4.60156 39.8854 3.17448 40.8125 2.11719C41.7396 1.0599 43.0625 0.53125 44.7812 0.53125C46.5 0.53125 47.8229 1.0599 48.75 2.11719C49.6771 3.17448 50.1406 4.60156 50.1406 6.39844C50.1406 8.19531 49.6771 9.6224 48.75 10.6797C47.8229 11.737 46.5 12.2656 44.7812 12.2656C43.0625 12.2656 41.7396 11.737 40.8125 10.6797C39.8854 9.6224 39.4219 8.19531 39.4219 6.39844ZM41.8594 6.39844C41.8594 7.70052 42.0911 8.69792 42.5547 9.39062C43.0234 10.0781 43.7656 10.4219 44.7812 10.4219C45.7969 10.4219 46.5365 10.0781 47 9.39062C47.4688 8.69792 47.7031 7.70052 47.7031 6.39844C47.7031 5.09635 47.4688 4.10156 47 3.41406C46.5365 2.72135 45.7969 2.375 44.7812 2.375C43.7656 2.375 43.0234 2.72135 42.5547 3.41406C42.0911 4.10156 41.8594 5.09635 41.8594 6.39844ZM52.6875 12C52.2708 12 52.0625 11.8047 52.0625 11.4141V1.38281C52.0625 0.992188 52.2708 0.796875 52.6875 0.796875H55.3438C57.3438 0.796875 58.6927 1.04427 59.3906 1.53906C60.0938 2.02865 60.4453 2.78385 60.4453 3.80469C60.4453 4.51823 60.1823 5.07031 59.6562 5.46094C59.1354 5.85156 58.6302 6.07812 58.1406 6.14062V6.16406C58.6146 6.19531 59.1719 6.4349 59.8125 6.88281C60.4531 7.33073 60.7734 7.96354 60.7734 8.78125C60.7734 9.73958 60.3828 10.5156 59.6016 11.1094C58.8203 11.7031 57.5312 12 55.7344 12H52.6875ZM54.3438 10.0938H55.4844C56.5885 10.0938 57.3385 9.9974 57.7344 9.80469C58.1354 9.61198 58.3359 9.22135 58.3359 8.63281C58.3359 8.08073 58.1042 7.70052 57.6406 7.49219C57.1823 7.27865 56.4635 7.17188 55.4844 7.17188H54.3438V10.0938ZM54.3438 5.32812H55.3672C56.0391 5.32812 56.6667 5.21094 57.25 4.97656C57.8385 4.74219 58.1328 4.3776 58.1328 3.88281C58.1328 3.4974 57.9688 3.20573 57.6406 3.00781C57.3177 2.80469 56.5599 2.70312 55.3672 2.70312H54.3438V5.32812ZM63.3906 12C63.026 12 62.8438 11.8047 62.8438 11.4141V1.38281C62.8438 0.992188 63.026 0.796875 63.3906 0.796875H64.5781C64.9427 0.796875 65.125 0.992188 65.125 1.38281V5.20312H66.3359C68.263 5.20312 69.6016 5.51042 70.3516 6.125C71.1016 6.73438 71.4766 7.5599 71.4766 8.60156C71.4766 9.64323 71.1016 10.4714 70.3516 11.0859C69.6016 11.6953 68.263 12 66.3359 12H63.3906ZM65.125 10.0938H66.1094C67.2031 10.0938 67.9635 10.0026 68.3906 9.82031C68.8229 9.63281 69.0391 9.22656 69.0391 8.60156C69.0391 7.97656 68.8229 7.57292 68.3906 7.39062C67.9635 7.20312 67.2031 7.10938 66.1094 7.10938H65.125V10.0938Z" fill="black"/>
</svg>
